<svg width="20" height="20" viewBox="0 0 20 20" fill="none" xmlns="http://www.w3.org/2000/svg">
<path d="M20 10C20 15.5228 15.5228 20 10 20C4.47778 20 0 15.5228 0 10C0 4.47778 4.47778 0 10 0C15.5228 0 20 4.47778 20 10Z" fill="#DA2F47"/>
<path d="M14.1583 16.5994C14.1333 16.5 13.5094 14.1667 10 14.1667C6.49 14.1667 5.86666 16.5 5.84166 16.5994C5.81111 16.72 5.86555 16.845 5.97333 16.9072C6.08166 16.9678 6.21722 16.9511 6.30666 16.8644C6.31722 16.8539 7.39222 15.8333 10 15.8333C12.6078 15.8333 13.6833 16.8539 13.6933 16.8639C13.7467 16.9167 13.8178 16.9444 13.8889 16.9444C13.9356 16.9444 13.9828 16.9328 14.0256 16.9089C14.1344 16.8467 14.1889 16.7205 14.1583 16.5994ZM8.72611 9.60721C6.91777 7.79888 4.01166 7.77777 3.88889 7.77777C3.58222 7.77777 3.33389 8.0261 3.33389 8.33222C3.33333 8.63888 3.58166 8.88777 3.88833 8.88888C3.90444 8.88888 4.95778 8.9011 6.10111 9.29833C5.77166 9.65388 5.55555 10.2061 5.55555 10.8333C5.55555 11.9078 6.17722 12.7778 6.94444 12.7778C7.71166 12.7778 8.33333 11.9078 8.33333 10.8333C8.33333 10.7367 8.32277 10.6444 8.31277 10.5517C8.32 10.5517 8.32666 10.5555 8.33333 10.5555C8.47555 10.5555 8.61777 10.5011 8.72611 10.3928C8.94333 10.1755 8.94333 9.82444 8.72611 9.60721ZM16.1111 7.77777C15.9883 7.77777 13.0828 7.79888 11.2739 9.60721C11.0567 9.82444 11.0567 10.1755 11.2739 10.3928C11.3822 10.5011 11.5244 10.5555 11.6667 10.5555C11.6739 10.5555 11.68 10.5517 11.6867 10.5517C11.6778 10.6444 11.6667 10.7367 11.6667 10.8333C11.6667 11.9078 12.2883 12.7778 13.0556 12.7778C13.8228 12.7778 14.4444 11.9078 14.4444 10.8333C14.4444 10.2061 14.2283 9.65388 13.8989 9.29833C15.0422 8.9011 16.0956 8.88888 16.1122 8.88888C16.4183 8.88777 16.6667 8.63888 16.6661 8.33222C16.6656 8.0261 16.4178 7.77777 16.1111 7.77777Z" fill="#292F33"/>
</svg>
