<svg width="20" height="20" viewBox="0 0 20 20" fill="none" xmlns="http://www.w3.org/2000/svg">
<path d="M20 10C20 15.5228 15.5228 20 10 20C4.47778 20 0 15.5228 0 10C0 4.47778 4.47778 0 10 0C15.5228 0 20 4.47778 20 10Z" fill="#FFCC4D"/>
<path d="M3.33333 7.22223C3.02667 7.22223 2.77778 6.97334 2.77778 6.66667C2.77778 6.36056 3.025 6.11223 3.33111 6.11111C3.41778 6.11 5.31389 6.06334 6.77833 4.11111C6.96222 3.86667 7.31 3.81556 7.55611 4C7.80167 4.18389 7.85111 4.53223 7.66722 4.77778C5.85444 7.19445 3.43556 7.22223 3.33333 7.22223ZM16.6667 7.22223C16.5644 7.22223 14.1461 7.19445 12.3333 4.77778C12.1489 4.53223 12.1989 4.18389 12.4444 4C12.6894 3.815 13.0372 3.86556 13.2217 4.11111C14.6889 6.06723 16.5889 6.11056 16.6694 6.11111C16.975 6.11445 17.2217 6.36445 17.22 6.66945C17.2189 6.97556 16.9722 7.22223 16.6667 7.22223ZM17 11.2222C16.9367 11.1744 15.9272 10.43 14.4189 9.92C14.4333 9.85612 14.4444 9.79056 14.4444 9.72223C14.4444 9.51723 14.3672 9.33167 14.245 9.18667C15.2461 8.89778 16.0972 8.88889 16.1122 8.88889C16.4183 8.88778 16.6667 8.63889 16.6661 8.33223C16.6656 8.02611 16.4178 7.77778 16.1111 7.77778C15.9883 7.77778 13.0828 7.79889 11.2739 9.60723C11.115 9.76611 11.0672 10.005 11.1533 10.2128C11.2389 10.4206 11.4422 10.5556 11.6667 10.5556C14.2167 10.5556 16.3128 12.0956 16.3339 12.1117C16.4339 12.1861 16.5506 12.2217 16.6661 12.2217C16.8356 12.2217 17.0022 12.1444 17.1117 11.9994C17.295 11.7533 17.245 11.4061 17 11.2222ZM8.72611 9.60723C6.91778 7.79889 4.01167 7.77778 3.88889 7.77778C3.58222 7.77778 3.33389 8.02611 3.33389 8.33223C3.33333 8.63889 3.58167 8.88778 3.88833 8.88889C3.90278 8.88889 4.75389 8.89778 5.75556 9.18667C5.63278 9.33167 5.55556 9.51723 5.55556 9.72223C5.55556 9.79056 5.56611 9.85612 5.58167 9.92C4.07278 10.43 3.06333 11.1744 3 11.2222C2.75445 11.4061 2.705 11.7544 2.88889 11.9994C2.99778 12.1456 3.165 12.2222 3.33389 12.2222C3.44945 12.2222 3.56667 12.1861 3.66667 12.1111C3.68722 12.0956 5.77056 10.5556 8.33333 10.5556C8.55778 10.5556 8.76056 10.4206 8.84667 10.2128C8.93278 10.005 8.885 9.76611 8.72611 9.60723ZM10 16.6667C9.83111 16.6667 9.67167 16.59 9.56611 16.4583L7.79167 14.2406L6.55556 15.8889C6.45889 16.0178 6.31111 16.0983 6.15056 16.1094C5.98945 16.1211 5.83167 16.0622 5.71833 15.9483L5.16278 15.3928C4.94556 15.1756 4.94556 14.8244 5.16278 14.6072C5.38 14.39 5.73111 14.39 5.94833 14.6072L6.05111 14.71L7.33333 13C7.43667 12.8622 7.59722 12.78 7.76889 12.7778C7.93278 12.7722 8.10389 12.8517 8.21111 12.9861L10 15.2217L11.7883 12.9861C11.8956 12.8522 12.0572 12.7778 12.2311 12.7778C12.4033 12.7806 12.5639 12.8622 12.6667 13L13.9494 14.7094L14.0522 14.6067C14.2694 14.3894 14.6206 14.3894 14.8378 14.6067C15.055 14.8239 15.055 15.175 14.8378 15.3922L14.2822 15.9478C14.1683 16.0617 14.0161 16.1222 13.85 16.1089C13.6894 16.0972 13.5417 16.0172 13.445 15.8883L12.2083 14.24L10.4344 16.4578C10.3283 16.59 10.1689 16.6667 10 16.6667Z" fill="#664500"/>
</svg>
