<svg width="93" height="79" viewBox="0 0 93 79" fill="none" xmlns="http://www.w3.org/2000/svg">
<g filter="url(#filter0_d)">
<path d="M45.7895 59.0959C45.7895 59.0959 49.8137 58.2528 52.3238 56.0084L34.0156 38.2553L27.9395 41.3606L29.3871 55.1475L41.0414 59.375L45.7895 59.0959Z" fill="#2F2F2F"/>
<path d="M36.6188 59.8381C36.2004 59.8916 36.1606 59.9747 36.2203 60.3012C36.6121 62.5278 36.2535 64.9741 33.7567 65.9894C32.9664 66.3159 32.1231 66.4941 31.2797 66.6425C30.277 66.8147 29.2809 66.9512 28.8426 67.9131C27.9395 69.8666 30.3832 69.5281 31.6649 69.4509C33.6371 69.3381 35.9613 68.78 37.5485 67.7172C38.5777 67.0225 38.9496 65.9597 38.9695 64.8553C38.9895 63.5075 39.3547 62.0587 39.6203 60.7466C39.7 60.3606 39.9789 59.8738 39.8926 59.47C39.3082 59.5947 38.7305 59.7669 38.1328 59.8678C37.6082 59.9569 37.1567 59.7787 36.6188 59.8381Z" fill="#F48120"/>
<path d="M46.7258 66.3575C47.2105 64.6891 46.9648 62.8484 46.593 61.1741C46.5265 60.8831 46.4469 60.5922 46.3805 60.3013C46.314 60.0519 46.241 59.8144 46.2012 59.565C46.1348 59.1256 45.7164 58.9891 45.298 59.0544C44.9726 59.1019 44.634 59.1078 44.3019 59.1434C43.9566 59.1791 43.3523 59.185 43.1199 59.4522C42.934 59.6541 43.1996 59.945 43.2527 60.1588C43.3258 60.4675 43.4055 60.7881 43.4453 61.0969C43.5183 61.7441 43.5183 62.3972 43.4453 63.0503C43.2926 64.3803 42.8078 65.6628 42.2301 66.8919C41.8383 67.7053 41.1676 68.4119 40.8023 69.2194C40.0586 70.8522 43.5914 70.8106 44.5344 70.5375C45.5969 70.2169 45.8558 69.2906 46.0683 68.4238C46.2476 67.735 46.5199 67.0463 46.7258 66.3575Z" fill="#F48120"/>
<path d="M78.209 24.6822C75.0879 24.0172 71.9867 22.9069 68.6531 22.6337C63.6527 22.2241 61.9062 24.1656 58.7254 27.1225C57.0453 28.6781 55.5977 31.8131 53.1605 32.49C50.2719 33.2916 47.1309 30.6612 45.4309 28.8978C42.9605 26.3328 41.7918 23.0731 40.0187 20.14C38.2391 17.2009 35.0316 14.6122 31.5453 13.3891C29.4602 12.6587 26.9566 12.3916 24.7187 12.5162C21.3719 12.7003 18.1113 13.8225 15.382 15.5622C7.97109 20.2825 7.50625 28.9691 10.9129 35.9219C13.8215 41.8772 11.6832 49.1981 16.9293 54.2747C22.2883 59.47 31.3527 61.3166 38.9695 60.5803C40.9152 60.3962 42.8211 59.9984 44.6672 59.4403C45.0391 59.3275 45.4176 59.2087 45.7895 59.0959C45.0324 58.8525 44.2953 58.52 43.6844 58.2469C40.4446 56.7745 37.684 54.5803 35.6691 51.8759C34.4672 50.2669 33.3781 48.5687 32.6543 46.74C32.2891 45.79 31.9969 44.7806 31.8773 43.7831C31.8242 43.32 31.7578 42.7262 32.0168 42.2928C32.5281 41.4378 33.0793 42.3937 33.1922 42.845C34.4406 47.8978 37.9934 52.4934 43.027 55.1059C44.5344 55.8837 46.1215 56.5369 47.775 57.0237C50.0262 57.6887 52.5098 58.1281 54.8539 57.6294C57.5035 57.0653 58.5793 54.9991 60.9234 54.0134C61.8996 53.6037 62.577 53.2712 63.2012 52.4519C63.4801 52.0837 63.7324 51.7216 64.1309 51.4484C64.5227 51.1634 65.0074 51.1337 65.3793 50.8131C65.7113 50.5162 65.9637 50.0947 66.0766 49.6909C66.1629 49.4178 66.2559 49.21 66.1297 48.9309C65.9504 48.5212 65.4324 48.2719 65.0738 47.9987C63.9117 47.0844 62.743 46.8469 64.2637 45.695C65.7777 44.5728 67.398 43.5812 69.0781 42.6787C70.4062 41.9662 71.6148 41.1528 72.9562 40.4462C75.9445 38.8609 78.9129 37.2281 82.0074 35.8209C84.2852 34.7878 87.6586 33.6953 88.2031 31.1422C88.8406 28.0487 80.8652 25.2403 78.209 24.6822Z" fill="#FFD863" fill-opacity="0.87"/>
<path d="M21.5844 25.1038C20.7012 26.2675 20.9203 27.9359 22.0625 28.8325C23.218 29.7231 24.8582 29.5094 25.7414 28.3516C26.618 27.1878 26.3988 25.5134 25.2566 24.6169C24.1012 23.7322 22.4609 23.9459 21.5844 25.1038Z" fill="#2F2F2F"/>
<path d="M10.8664 27.1284C10.2621 27.1403 9.63124 27.5797 9.15975 27.8766C8.36952 28.3812 7.63241 28.9631 6.95507 29.5866C6.31093 30.1744 5.68671 30.8037 5.2285 31.5163C4.76366 32.1991 4.41171 32.8522 5.38124 33.25C6.38397 33.6597 7.48632 33.6597 8.56874 33.7666C9.68436 33.8794 10.8066 33.9566 11.9289 34.0041C12.8719 34.0397 14.0141 34.1881 14.9172 33.9031C15.5016 33.7191 15.3289 33.2381 15.2492 32.8225C15.1164 32.205 14.7512 31.6528 14.4789 31.0769C13.9144 29.8716 12.7723 27.1878 10.966 27.1284H10.8664Z" fill="#F48120"/>
</g>
<defs>
<filter id="filter0_d" x="0" y="0" width="93" height="84" filterUnits="userSpaceOnUse" color-interpolation-filters="sRGB">
<feFlood flood-opacity="0" result="BackgroundImageFix"/>
<feColorMatrix in="SourceAlpha" type="matrix" values="0 0 0 0 0 0 0 0 0 0 0 0 0 0 0 0 0 0 127 0"/>
<feOffset dy="4"/>
<feGaussianBlur stdDeviation="2"/>
<feColorMatrix type="matrix" values="0 0 0 0 0 0 0 0 0 0 0 0 0 0 0 0 0 0 0.25 0"/>
<feBlend mode="normal" in2="BackgroundImageFix" result="effect1_dropShadow"/>
<feBlend mode="normal" in="SourceGraphic" in2="effect1_dropShadow" result="shape"/>
</filter>
</defs>
</svg>
