<svg width="20" height="20" viewBox="0 0 20 20" fill="none" xmlns="http://www.w3.org/2000/svg">
<path d="M10 20C15.5228 20 20 15.5228 20 10C20 4.47715 15.5228 0 10 0C4.47715 0 0 4.47715 0 10C0 15.5228 4.47715 20 10 20Z" fill="#FFCC4D"/>
<path d="M10 11.6667C7.98722 11.6667 6.65166 11.4322 5 11.1111C4.62277 11.0383 3.88889 11.1111 3.88889 12.2222C3.88889 14.4444 6.44166 17.2222 10 17.2222C13.5578 17.2222 16.1111 14.4444 16.1111 12.2222C16.1111 11.1111 15.3772 11.0378 15 11.1111C13.3483 11.4322 12.0128 11.6667 10 11.6667Z" fill="#664500"/>
<path d="M5 12.2222C5 12.2222 6.66667 12.7778 10 12.7778C13.3333 12.7778 15 12.2222 15 12.2222C15 12.2222 13.8889 14.4445 10 14.4445C6.11111 14.4445 5 12.2222 5 12.2222Z" fill="white"/>
<path d="M6.66666 9.44445C7.43372 9.44445 8.05555 8.57389 8.05555 7.5C8.05555 6.42611 7.43372 5.55556 6.66666 5.55556C5.8996 5.55556 5.27777 6.42611 5.27777 7.5C5.27777 8.57389 5.8996 9.44445 6.66666 9.44445Z" fill="#664500"/>
<path d="M13.3333 9.44445C14.1004 9.44445 14.7222 8.57389 14.7222 7.5C14.7222 6.42611 14.1004 5.55556 13.3333 5.55556C12.5663 5.55556 11.9444 6.42611 11.9444 7.5C11.9444 8.57389 12.5663 9.44445 13.3333 9.44445Z" fill="#664500"/>
</svg>
