<svg width="60" height="60" viewBox="0 0 60 60" fill="none" xmlns="http://www.w3.org/2000/svg">
<g clip-path="url(#clip0)">
<path d="M16.9 18.8025H43.3334V21.4067H16.9V18.8025Z" fill="#D0CFCE"/>
<path d="M23.5225 33.9858L20.7833 36.6742L18.9492 35.9242L9.49833 44.6308C9.20666 44.1142 9.02333 43.4308 9.02333 42.6975V20.6058L23.5233 33.9858H23.5225Z" fill="#D0CFCE"/>
<path d="M50.6392 20.5642V42.6975C50.6392 43.4142 50.4725 44.0725 50.1808 44.5892L40.6492 35.86L39.38 36.0242L36.4858 33.685L39.7983 30.5642L50.64 20.5642H50.6392Z" fill="#9B9B9A"/>
<path d="M22.2892 32.8475L26.0142 36.2892C26.2142 36.4725 26.4142 36.6308 26.6142 36.7642C28.6392 38.2642 30.9975 38.2642 33.0142 36.7558C33.2058 36.6225 33.4058 36.4558 33.5892 36.2892L37.3392 32.8308" fill="#D0CFCE"/>
<path d="M22.2892 32.8475L26.0142 36.2892C26.2142 36.4725 26.4142 36.6308 26.6142 36.7642C28.6392 38.2642 30.9975 38.2642 33.0142 36.7558C33.2058 36.6225 33.4058 36.4558 33.5892 36.2892L37.3392 32.8308L50.1808 44.5892C49.8308 45.2308 49.2892 45.6475 48.6892 45.6475H10.9725C10.3891 45.6475 9.85582 45.2558 9.49748 44.6308L22.2892 32.8475Z" fill="#D0CFCE"/>
<path d="M22.2892 32.8475L26.0142 36.2892C26.2142 36.4725 26.4142 36.6308 26.6142 36.7642C28.6392 38.2642 30.9975 38.2642 33.0142 36.7558C33.2058 36.6225 33.4058 36.4558 33.5892 36.2892L37.3392 32.8308L50.1808 44.5892C49.8308 45.2308 49.2892 45.6475 48.6892 45.6475H10.9725C10.3891 45.6475 9.85582 45.2558 9.49748 44.6308L22.2892 32.8475" stroke="#D0CFCE" stroke-width="0.45" stroke-miterlimit="10" stroke-linecap="round" stroke-linejoin="round"/>
<path d="M39.8933 35.1692L50.1808 44.5892C49.8308 45.2308 49.2892 45.6475 48.6892 45.6475H10.9725C10.3891 45.6475 9.85582 45.2558 9.49748 44.6308L19.5641 35.3583" fill="#D0CFCE"/>
<path d="M41.3283 19.6392H49.2117C49.7033 19.6392 50.1783 19.9308 50.52 20.3975C50.5617 20.4475 50.6033 20.5058 50.6367 20.5642L37.3367 32.8308L33.5867 36.2892C33.4033 36.4558 33.2033 36.6225 33.0117 36.7558C30.995 38.2642 28.6367 38.2642 26.6117 36.7642C26.4117 36.6308 26.2117 36.4725 26.0117 36.2892L22.2867 32.8475L9.01999 20.6058C9.05332 20.5558 9.09499 20.4975 9.13666 20.4392C9.48666 19.9392 9.96166 19.6392 10.4783 19.6392H17.545" fill="#D0CFCE"/>
<path d="M24.9583 18.4142H26.2817C26.5025 18.4142 26.7144 18.3265 26.8706 18.1704C27.0269 18.0143 27.1148 17.8025 27.115 17.5817V13.9058C27.115 13.685 27.2027 13.4731 27.3588 13.3169C27.5149 13.1606 27.7266 13.0727 27.9475 13.0725H31.5567C31.7777 13.0725 31.9896 13.1603 32.1459 13.3166C32.3022 13.4729 32.39 13.6848 32.39 13.9058V17.5817C32.39 17.8027 32.4778 18.0147 32.6341 18.1709C32.7903 18.3272 33.0023 18.415 33.2233 18.415H34.5383C34.6909 18.4152 34.8404 18.4573 34.9707 18.5367C35.101 18.6161 35.207 18.7297 35.2771 18.8652C35.3473 19.0007 35.3789 19.1528 35.3685 19.305C35.3581 19.4572 35.3062 19.6036 35.2183 19.7283L30.4275 26.4958C30.3505 26.6044 30.2486 26.6929 30.1304 26.7539C30.0121 26.815 29.881 26.8469 29.7479 26.8469C29.6148 26.8469 29.4837 26.815 29.3655 26.7539C29.2472 26.6929 29.1453 26.6044 29.0683 26.4958L24.2783 19.7292C24.19 19.6045 24.1377 19.458 24.127 19.3056C24.1164 19.1532 24.1478 19.0008 24.2179 18.8651C24.288 18.7294 24.3941 18.6155 24.5245 18.536C24.6549 18.4565 24.8047 18.4143 24.9575 18.4142H24.9583Z" fill="#EA5A47"/>
<path d="M18.9492 35.925L9.49834 44.63C9.20667 44.1133 9.02334 43.43 9.02334 42.6967V20.605L23.5233 33.985" stroke="black" stroke-width="0.5" stroke-miterlimit="10" stroke-linecap="round" stroke-linejoin="round"/>
<path d="M36.485 33.685L39.7975 30.5642L50.6392 20.5642V42.6975C50.6392 43.4142 50.4725 44.0725 50.1808 44.5892L40.6492 35.86" stroke="black" stroke-width="0.5" stroke-miterlimit="10" stroke-linecap="round" stroke-linejoin="round"/>
<path d="M22.2891 32.8475L26.0141 36.2892C26.2141 36.4725 26.4141 36.6308 26.6141 36.7642C28.6391 38.2642 30.9975 38.2642 33.0141 36.7558C33.2058 36.6225 33.4058 36.4558 33.5891 36.2892L37.3391 32.8308" stroke="black" stroke-width="0.5" stroke-miterlimit="10" stroke-linecap="round" stroke-linejoin="round"/>
<path d="M39.8933 35.1692L50.1808 44.5892C49.8308 45.2309 49.2892 45.6475 48.6892 45.6475H10.9725C10.3891 45.6475 9.85582 45.2559 9.49748 44.6309L19.5641 35.3584" stroke="black" stroke-width="0.5" stroke-miterlimit="10" stroke-linecap="round" stroke-linejoin="round"/>
<path d="M41.3283 19.6392H49.2117C49.7033 19.6392 50.1783 19.9309 50.52 20.3975C50.5617 20.4475 50.6033 20.5059 50.6367 20.5642L37.3367 32.8309L33.5867 36.2892C33.4033 36.4559 33.2033 36.6225 33.0117 36.7559C30.995 38.2642 28.6367 38.2642 26.6117 36.7642C26.4117 36.6309 26.2117 36.4725 26.0117 36.2892L22.2867 32.8475L9.01999 20.6059C9.05332 20.5559 9.09499 20.4975 9.13666 20.4392C9.48666 19.9392 9.96166 19.6392 10.4783 19.6392H17.545" stroke="black" stroke-width="0.5" stroke-miterlimit="10" stroke-linecap="round" stroke-linejoin="round"/>
<path d="M24.9583 18.4142H26.2817C26.5025 18.4142 26.7144 18.3265 26.8706 18.1704C27.0269 18.0143 27.1148 17.8025 27.115 17.5817V13.9058C27.115 13.685 27.2027 13.4731 27.3588 13.3169C27.5149 13.1606 27.7266 13.0727 27.9475 13.0725H31.5567C31.7777 13.0725 31.9896 13.1603 32.1459 13.3166C32.3022 13.4729 32.39 13.6848 32.39 13.9058V17.5817C32.39 17.8027 32.4778 18.0147 32.6341 18.1709C32.7903 18.3272 33.0023 18.415 33.2233 18.415H34.5383C34.6909 18.4152 34.8405 18.4573 34.9707 18.5367C35.101 18.6161 35.207 18.7297 35.2771 18.8652C35.3473 19.0007 35.3789 19.1528 35.3685 19.305C35.3582 19.4572 35.3062 19.6036 35.2183 19.7283L30.4275 26.4958C30.3505 26.6044 30.2486 26.6929 30.1304 26.7539C30.0121 26.815 29.881 26.8469 29.7479 26.8469C29.6148 26.8469 29.4837 26.815 29.3655 26.7539C29.2472 26.6929 29.1453 26.6044 29.0683 26.4958L24.2783 19.7292C24.19 19.6045 24.1377 19.458 24.1271 19.3056C24.1164 19.1532 24.1478 19.0008 24.2179 18.8651C24.288 18.7294 24.3941 18.6155 24.5245 18.536C24.655 18.4565 24.8047 18.4143 24.9575 18.4142H24.9583Z" stroke="black" stroke-width="0.5" stroke-miterlimit="10" stroke-linecap="round"/>
<path d="M46.55 27C47.9583 27 49.1 26.186 49.1 25.1818C49.1 24.1777 47.9583 23.3636 46.55 23.3636C45.1417 23.3636 44 24.1777 44 25.1818C44 26.186 45.1417 27 46.55 27Z" fill="#BE1931"/>
<path d="M49.1 20.3333C49.1 21.3376 47.9584 22.1515 46.55 22.1515C45.1415 22.1515 44 21.3376 44 20.3333V8.81818C44 7.81394 45.1415 7 46.55 7C47.9584 7 49.1 7.81394 49.1 8.81818V20.3333Z" fill="#BE1931"/>
<path d="M58.45 27C59.8583 27 61 26.186 61 25.1818C61 24.1777 59.8583 23.3636 58.45 23.3636C57.0417 23.3636 55.9 24.1777 55.9 25.1818C55.9 26.186 57.0417 27 58.45 27Z" fill="#BE1931"/>
<path d="M61 20.3333C61 21.3376 59.8576 22.1515 58.45 22.1515C57.0424 22.1515 55.9 21.3376 55.9 20.3333V8.81818C55.9 7.81394 57.0424 7 58.45 7C59.8576 7 61 7.81394 61 8.81818V20.3333Z" fill="#BE1931"/>
</g>
<defs>
<clipPath id="clip0">
<rect width="60" height="60" fill="white"/>
</clipPath>
</defs>
</svg>
