<svg width="20" height="20" viewBox="0 0 20 20" fill="none" xmlns="http://www.w3.org/2000/svg">
<path d="M10 20C15.5228 20 20 15.5228 20 10C20 4.47715 15.5228 0 10 0C4.47715 0 0 4.47715 0 10C0 15.5228 4.47715 20 10 20Z" fill="#FFCC4D"/>
<path d="M8.88889 9.42111C8.65611 9.42111 8.43945 9.27389 8.36167 9.04111C8.24889 8.70833 7.79611 7.75444 7.22222 7.75444C6.63222 7.75444 6.17334 8.76944 6.08278 9.04111C5.98556 9.33167 5.67278 9.49 5.38 9.39222C5.08889 9.29555 4.93167 8.98055 5.02889 8.68944C5.09834 8.48 5.75334 6.64278 7.22278 6.64278C8.69222 6.64278 9.34667 8.48 9.41667 8.68944C9.51389 8.98055 9.35667 9.29555 9.06556 9.39222C9.00667 9.41222 8.94722 9.42111 8.88889 9.42111ZM14.4444 9.42111C14.2117 9.42111 13.995 9.27389 13.9178 9.04111C13.805 8.70833 13.3517 7.75444 12.7778 7.75444C12.1878 7.75444 11.7283 8.76944 11.6378 9.04111C11.5406 9.33167 11.2289 9.49 10.935 9.39222C10.6444 9.29555 10.4867 8.98055 10.5839 8.68944C10.6533 8.48 11.3083 6.64278 12.7772 6.64278C14.2461 6.64278 14.9011 8.48 14.9706 8.68944C15.0678 8.98055 14.9106 9.29555 14.6194 9.39222C14.5617 9.41222 14.5028 9.42111 14.4444 9.42111ZM15.1861 11.495C15.0872 11.4056 14.9394 11.4 14.8333 11.4789C14.8117 11.495 12.6544 13.09 10 13.09C7.35223 13.09 5.18778 11.495 5.16667 11.4789C5.06056 11.4 4.91278 11.4067 4.81389 11.495C4.71556 11.5839 4.69334 11.7306 4.76167 11.8439C4.83334 11.9633 6.54889 14.7567 10 14.7567C13.4511 14.7567 15.1672 11.9633 15.2383 11.8439C15.3067 11.73 15.285 11.5844 15.1861 11.495Z" fill="#664500"/>
<path d="M11.7939 2.19278C11.7939 2.32611 11.8106 2.455 11.8394 2.57945C12.0756 4.04778 13.7083 5.59667 14.8783 6.02222C15.8033 5.68611 17.015 4.64667 17.5994 3.50056C16.4389 2.145 14.9222 1.10389 13.1944 0.521667C12.3989 0.664445 11.7939 1.35611 11.7939 2.19278ZM7.635 16.1544C7.66667 16.02 7.685 15.88 7.685 15.7356C7.685 14.7172 6.85945 13.8917 5.84111 13.8917C5.22278 13.8917 4.67778 14.1967 4.34278 14.6633C4.00833 14.1972 3.46278 13.8917 2.84445 13.8917C2.155 13.8917 1.56056 14.2744 1.24445 14.835C2.25778 16.6656 3.82778 18.1444 5.72667 19.0428C6.63611 18.2922 7.46611 17.2056 7.635 16.1544ZM19.0561 14.2456C18.8994 13.7178 18.4161 13.3306 17.8372 13.3306C17.4089 13.3306 17.0311 13.5417 16.7994 13.865C16.5678 13.5417 16.19 13.3306 15.7617 13.3306C15.0561 13.3306 14.4844 13.9022 14.4844 14.6078C14.4844 14.7078 14.4972 14.8044 14.5189 14.8978C14.6894 15.9561 15.8233 17.0622 16.6906 17.4317C17.6772 16.5428 18.4856 15.4611 19.0561 14.2456Z" fill="#FFAC33"/>
<path d="M18.6806 1.81611C18.6806 0.876108 17.9183 0.114441 16.9789 0.114441C16.4083 0.114441 15.905 0.396108 15.5961 0.826663C15.2872 0.396108 14.7839 0.114441 14.2133 0.114441C13.2733 0.114441 12.5117 0.876108 12.5117 1.81611C12.5117 1.94944 12.5283 2.07833 12.5572 2.20277C12.7939 3.67111 14.4261 5.22 15.5961 5.64555C16.7661 5.22 18.3983 3.67111 18.6344 2.20333C18.6639 2.07833 18.6806 1.94944 18.6806 1.81611ZM6.78222 15.7822C6.78222 14.7639 5.95667 13.9383 4.93833 13.9383C4.32 13.9383 3.775 14.2433 3.44 14.71C3.10556 14.2433 2.56 13.9383 1.94167 13.9383C0.923334 13.9383 0.0977783 14.7639 0.0977783 15.7822C0.0977783 15.9267 0.116112 16.0661 0.147223 16.2011C0.403334 17.7917 2.17167 19.47 3.43945 19.9311C4.70722 19.4706 6.47556 17.7922 6.73167 16.2017C6.76389 16.0661 6.78222 15.9261 6.78222 15.7822ZM19.9711 14.515C19.9711 13.8094 19.3994 13.2378 18.6939 13.2378C18.2656 13.2378 17.8878 13.4489 17.6561 13.7722C17.4244 13.4489 17.0467 13.2378 16.6183 13.2378C15.9128 13.2378 15.3411 13.8094 15.3411 14.515C15.3411 14.615 15.3539 14.7117 15.3756 14.805C15.5528 15.9067 16.7778 17.0694 17.6561 17.3883C18.5339 17.0694 19.7594 15.9067 19.9361 14.805C19.9583 14.7117 19.9711 14.615 19.9711 14.515Z" fill="#DD2E44"/>
</svg>
