<svg width="20" height="20" viewBox="0 0 20 20" fill="none" xmlns="http://www.w3.org/2000/svg">
<path d="M20 10C20 15.5228 15.5228 20 10 20C4.47778 20 0 15.5228 0 10C0 4.47778 4.47778 0 10 0C15.5228 0 20 4.47778 20 10Z" fill="#FFCC4D"/>
<path d="M6.38889 10C7.15595 10 7.77778 9.12945 7.77778 8.05556C7.77778 6.98167 7.15595 6.11111 6.38889 6.11111C5.62183 6.11111 5 6.98167 5 8.05556C5 9.12945 5.62183 10 6.38889 10Z" fill="#664500"/>
<path d="M13.6111 10C14.3782 10 15 9.12945 15 8.05556C15 6.98167 14.3782 6.11111 13.6111 6.11111C12.844 6.11111 12.2222 6.98167 12.2222 8.05556C12.2222 9.12945 12.844 10 13.6111 10Z" fill="#664500"/>
<path d="M4.8139 15.4839C4.91278 15.5733 5.06056 15.5789 5.16667 15.5C5.18834 15.4839 7.34556 13.8889 10 13.8889C12.6478 13.8889 14.8122 15.4839 14.8333 15.5C14.9394 15.5789 15.0872 15.5722 15.1861 15.4839C15.2844 15.395 15.3067 15.2483 15.2383 15.135C15.1667 15.0161 13.4511 12.2222 10 12.2222C6.5489 12.2222 4.83278 15.0156 4.76167 15.135C4.69334 15.2489 4.71501 15.395 4.8139 15.4839Z" fill="#664500"/>
</svg>
