<svg width="70" height="70" viewBox="0 0 70 70" fill="none" xmlns="http://www.w3.org/2000/svg">
<path d="M61.7818 23.1573H28.3519C27.5127 23.1573 26.8324 23.8377 26.8324 24.6769V44.4403C26.8324 45.2795 27.5127 45.9599 28.3519 45.9599H61.7818C62.6211 45.9599 63.3014 45.2795 63.3014 44.4403V24.6769C63.3014 23.8377 62.6211 23.1573 61.7818 23.1573Z" fill="#D0CFCE"/>
<path d="M63.3422 23.9138V43.3533C63.342 43.9337 63.2173 44.5072 62.9767 45.0353L54.7186 37.4335L53.9875 37.5064L50.9911 34.7297L63.3422 23.9138Z" fill="#9B9B9A"/>
<path d="M5.63597 40.74H21.4929" stroke="black" stroke-width="0.5" stroke-linecap="round" stroke-linejoin="round"/>
<path d="M9.03389 33.9442H21.4929" stroke="black" stroke-width="0.5" stroke-linecap="round" stroke-linejoin="round"/>
<path d="M35.4978 37.5064L27.3117 45.0343C27.0378 44.5154 26.8881 43.94 26.8742 43.3534V23.9867" stroke="black" stroke-width="0.5" stroke-linecap="round" stroke-linejoin="round"/>
<path d="M55.9397 38.3046L63.0292 44.8292C63.2357 44.3762 63.3427 43.8842 63.3432 43.3864V23.9128" stroke="black" stroke-width="0.5" stroke-linecap="round" stroke-linejoin="round"/>
<path d="M53.9146 36.7034L62.9038 44.9614C62.7925 45.225 62.611 45.453 62.379 45.6205C62.1471 45.788 61.8735 45.8886 61.5883 45.9113H28.5551C28.282 45.8801 28.0202 45.7843 27.7914 45.6318C27.5627 45.4793 27.3736 45.2745 27.2397 45.0343L36.0821 36.9221" stroke="black" stroke-width="0.5" stroke-linecap="round" stroke-linejoin="round"/>
<path d="M63.3422 23.9138L51.6493 34.6568L48.3603 37.7261C48.2145 37.872 47.9947 38.0178 47.8489 38.1636C47.0502 38.8023 46.0579 39.1502 45.0353 39.1502C44.0126 39.1502 43.0204 38.8023 42.2217 38.1636C42.0758 38.0178 41.8561 37.872 41.7093 37.7261L38.4213 34.7297L26.8742 23.9867C26.8742 23.9138 26.9471 23.9138 26.9471 23.8409C27.0687 23.6338 27.2386 23.4592 27.4422 23.3319C27.6459 23.2046 27.8772 23.1284 28.1167 23.1097H62.0997C62.3306 23.1289 62.5545 23.1976 62.7564 23.3112C62.9582 23.4248 63.1332 23.5806 63.2693 23.7679C63.2693 23.8409 63.3422 23.8409 63.3422 23.9138Z" stroke="black" stroke-width="0.5" stroke-linecap="round" stroke-linejoin="round"/>
</svg>
